<?xml version="1.0" encoding="UTF-8" standalone="no"?>
<svg width="20px" height="19px" viewBox="0 0 20 19" version="1.1" xmlns="http://www.w3.org/2000/svg" xmlns:xlink="http://www.w3.org/1999/xlink">
    <!-- Generator: Sketch 47.1 (45422) - http://www.bohemiancoding.com/sketch -->
    <title>叭_slice</title>
    <desc>Created with Sketch.</desc>
    <defs></defs>
    <g id="Page-1" stroke="none" stroke-width="1" fill="none" fill-rule="evenodd">
        <g id="Artboard" transform="translate(-14.000000, -382.000000)" fill-rule="nonzero" fill="#FFFFFF">
            <g id="喇叭" transform="translate(14.000000, 382.000000)">
                <path d="M10.010262,6.9443184e-05 L5.1087838,4.74954446 L1.63476545,4.74954446 C0.732030695,4.74954446 0,5.45862204 0,6.33290252 L0,12.6658022 C0,13.540815 0.732030695,14.2491269 1.63476545,14.2491269 L5.10864633,14.2491269 L10.010262,19 C10.9128593,19 11.6442714,18.2909224 11.6442714,17.4166087 L11.6442714,1.58339422 C11.6442714,0.709080452 10.912928,6.9443184e-05 10.010262,6.9443184e-05 L10.010262,6.9443184e-05 Z M10.010262,17.3617186 L5.72094017,12.7781787 L1.63476545,12.7781787 L1.63476545,6.44544553 L5.72094017,6.44544553 L10.010262,1.8612067 L10.010262,17.3618184 L10.010262,17.3617186 L10.010262,17.3617186 Z M19.6981556,10.1944161 C19.8595116,10.1944161 19.9900055,9.88335004 19.9900055,9.49991822 C19.9900055,9.11661954 19.8595116,8.80545358 19.6981556,8.80545358 L17.6540028,8.80545358 C17.4925436,8.80545358 17.3620153,9.11651968 17.3620153,9.49991822 C17.3620153,9.88335004 17.4925436,10.1944161 17.6540028,10.1944161 L19.6981556,10.1944161 L19.6981556,10.1944161 Z M19.9196894,1.21936866 C20.0595313,1.14121101 20.0120008,0.808575002 19.8140432,0.476571443 C19.6162231,0.144634458 19.3425536,-0.0616111859 19.2026773,0.0165464596 L17.432469,1.00646563 C17.2926958,1.08462328 17.340295,1.41729258 17.5381151,1.74926285 C17.736004,2.08123312 18.0096735,2.28744548 18.1495154,2.20925454 L19.9196894,1.21936866 L19.9196894,1.21936866 Z M19.9196894,17.7805344 C20.0595313,17.8587586 20.0120008,18.1913613 19.8140432,18.5232983 C19.6162231,18.8553018 19.3425536,19.0615475 19.2026773,18.9832567 L17.432469,17.9935705 C17.2926958,17.9152797 17.340295,17.582677 17.5381151,17.25074 C17.736004,16.9187365 18.0096735,16.7124242 18.1495154,16.790715 L19.9196894,17.7805344 L19.9196894,17.7805344 Z M12.7945218,13.0573227 C12.6487343,12.6772861 12.6889788,12.3168556 13.0813542,12.1756525 C14.0721732,11.7326704 14.545175,10.870573 14.6661147,9.78928126 C14.8071595,8.52770768 14.1837649,7.36835817 13.1076798,6.89079099 C12.755652,6.67156346 12.610002,6.29162676 12.8363129,5.95063574 C13.0627956,5.60977786 13.4550679,5.46860811 13.8069581,5.68783565 C15.4009979,6.58441835 16.3561089,8.14331053 16.1546115,9.94549669 C15.9932554,11.3872856 15.0878056,12.7509501 13.7046456,13.3351685 C13.3814524,13.5123214 12.9480765,13.3960502 12.7944875,13.0574226 L12.7945218,13.0573227 L12.7945218,13.0573227 Z" id="Shape"></path>
            </g>
        </g>
    </g>
</svg>